<svg width="76" height="19" viewBox="0 0 76 19" fill="none" xmlns="http://www.w3.org/2000/svg">
<path d="M0.68 18.5V1.22H6.188C6.332 1.22 6.616 1.224 7.04 1.232C7.472 1.24 7.888 1.268 8.288 1.316C9.656 1.492 10.812 1.98 11.756 2.78C12.708 3.572 13.428 4.584 13.916 5.816C14.404 7.048 14.648 8.396 14.648 9.86C14.648 11.324 14.404 12.672 13.916 13.904C13.428 15.136 12.708 16.152 11.756 16.952C10.812 17.744 9.656 18.228 8.288 18.404C7.896 18.452 7.484 18.48 7.052 18.488C6.62 18.496 6.332 18.5 6.188 18.5H0.68ZM3.62 15.776H6.188C6.428 15.776 6.732 15.768 7.1 15.752C7.476 15.736 7.808 15.7 8.096 15.644C8.912 15.492 9.576 15.128 10.088 14.552C10.6 13.976 10.976 13.276 11.216 12.452C11.464 11.628 11.588 10.764 11.588 9.86C11.588 8.924 11.464 8.044 11.216 7.22C10.968 6.396 10.584 5.704 10.064 5.144C9.552 4.584 8.896 4.228 8.096 4.076C7.808 4.012 7.476 3.976 7.1 3.968C6.732 3.952 6.428 3.944 6.188 3.944H3.62V15.776ZM18.2047 18.5V1.22H25.3447C25.5127 1.22 25.7287 1.228 25.9927 1.244C26.2567 1.252 26.5007 1.276 26.7247 1.316C27.7247 1.468 28.5487 1.8 29.1967 2.312C29.8527 2.824 30.3367 3.472 30.6487 4.256C30.9687 5.032 31.1287 5.896 31.1287 6.848C31.1287 8.256 30.7727 9.468 30.0607 10.484C29.3487 11.492 28.2567 12.116 26.7847 12.356L25.5487 12.464H21.0967V18.5H18.2047ZM28.1287 18.5L24.7207 11.468L27.6607 10.82L31.4047 18.5H28.1287ZM21.0967 9.764H25.2247C25.3847 9.764 25.5647 9.756 25.7647 9.74C25.9647 9.724 26.1487 9.692 26.3167 9.644C26.7967 9.524 27.1727 9.312 27.4447 9.008C27.7247 8.704 27.9207 8.36 28.0327 7.976C28.1527 7.592 28.2127 7.216 28.2127 6.848C28.2127 6.48 28.1527 6.104 28.0327 5.72C27.9207 5.328 27.7247 4.98 27.4447 4.676C27.1727 4.372 26.7967 4.16 26.3167 4.04C26.1487 3.992 25.9647 3.964 25.7647 3.956C25.5647 3.94 25.3847 3.932 25.2247 3.932H21.0967V9.764ZM35.2484 18.5V15.536H38.2124V18.5H35.2484Z" fill="#121212"/>
<path d="M50.0855 18.86C48.3575 18.86 46.8775 18.484 45.6455 17.732C44.4135 16.972 43.4655 15.916 42.8015 14.564C42.1455 13.212 41.8175 11.644 41.8175 9.86C41.8175 8.076 42.1455 6.508 42.8015 5.156C43.4655 3.804 44.4135 2.752 45.6455 2C46.8775 1.24 48.3575 0.86 50.0855 0.86C51.8135 0.86 53.2935 1.24 54.5255 2C55.7655 2.752 56.7135 3.804 57.3695 5.156C58.0335 6.508 58.3655 8.076 58.3655 9.86C58.3655 11.644 58.0335 13.212 57.3695 14.564C56.7135 15.916 55.7655 16.972 54.5255 17.732C53.2935 18.484 51.8135 18.86 50.0855 18.86ZM50.0855 16.136C51.2455 16.144 52.2095 15.888 52.9775 15.368C53.7535 14.848 54.3335 14.116 54.7175 13.172C55.1095 12.228 55.3055 11.124 55.3055 9.86C55.3055 8.596 55.1095 7.5 54.7175 6.572C54.3335 5.636 53.7535 4.908 52.9775 4.388C52.2095 3.868 51.2455 3.6 50.0855 3.584C48.9255 3.576 47.9615 3.832 47.1935 4.352C46.4255 4.872 45.8455 5.604 45.4535 6.548C45.0695 7.492 44.8775 8.596 44.8775 9.86C44.8775 11.124 45.0695 12.224 45.4535 13.16C45.8375 14.088 46.4135 14.812 47.1815 15.332C47.9575 15.852 48.9255 16.12 50.0855 16.136ZM61.4741 18.5V1.22H64.4021L72.4181 13.4V1.22H75.3461V18.5H72.4181L64.4021 6.32V18.5H61.4741Z" fill="#219653"/>
</svg>
